Coordinates
version=1
nRows=21
nColumns=19
inDegrees=yes

Units are S.I. units (second, meters, Newtons, ...)
If the header above contains a line with 'inDegrees', this indicates whether rotational values are in degrees (yes) or radians (no).

endheader
time	pelvis_tilt	pelvis_list	pelvis_rotation	pelvis_tx	pelvis_ty	pelvis_tz	hip_flexion_r	hip_adduction_r	hip_rotation_r	knee_angle_r	knee_angle_r_beta	ankle_angle_r	hip_flexion_l	hip_adduction_l	hip_rotation_l	knee_angle_l	knee_angle_l_beta	ankle_angle_l
     53.75000000	     -3.74619082	      2.68016843	     -1.72856717	      1.07060253	      0.95894825	     -0.52702370	     13.60963445	     -7.56580593	     -3.57735884	     53.23464327	      0.92911980	    -25.03344223	      8.73439913	      6.30573238	      0.41087268	      0.14857988	      0.00259321	     -4.83121685
     53.76000000	     -3.75617012	      2.72752895	     -1.75085791	      1.06994477	      0.95936405	     -0.52864849	     14.75813557	     -7.98066580	     -4.09833602	     54.59715913	      0.95290019	    -25.86006424	      8.28700282	      6.49054198	      0.49900573	      0.15216588	      0.00265580	     -4.38600452
     53.77000000	     -3.75562392	      2.76301336	     -1.69741246	      1.06931977	      0.95977672	     -0.53008638	     15.78094661	     -8.31791545	     -4.61317932	     55.77708874	      0.97349385	    -25.56692315	      7.81552899	      6.65723344	      0.64404511	      0.15482159	      0.00270215	     -3.89239848
     53.78000000	     -3.77624025	      2.79909257	     -1.69229490	      1.06850391	      0.96015379	     -0.53145138	     16.85990064	     -8.70795267	     -5.20084209	     56.92210813	      0.99347820	    -23.87963946	      7.38696334	      6.81054799	      0.64672678	      0.15743432	      0.00274775	     -3.41982575
     53.79000000	     -3.82441742	      2.81333576	     -1.64651544	      1.06751685	      0.96056754	     -0.53266883	     17.87067881	     -9.06344561	     -5.81951760	     57.75801605	      1.00806755	    -21.82661951	      6.99239511	      6.93429654	      0.70197795	      0.16104928	      0.00281084	     -3.02023730
     53.80000000	     -3.87917359	      2.79340597	     -1.56177820	      1.06652695	      0.96101683	     -0.53361693	     18.82700179	     -9.31761208	     -6.40971481	     58.43773018	      1.01993080	    -19.30677347	      6.59352991	      7.00359734	      0.78744279	      0.16473301	      0.00287513	     -2.56742714
     53.81000000	     -3.95658428	      2.78767728	     -1.60244933	      1.06538191	      0.96148333	     -0.53438691	     19.82967602	     -9.48915607	     -6.74401836	     58.92680346	      1.02846674	    -16.63216748	      6.23888084	      7.06346506	      0.73629297	      0.17023867	      0.00297123	     -2.18787694
     53.82000000	     -4.02751871	      2.75611301	     -1.59681546	      1.06436738	      0.96196661	     -0.53508994	     20.73183807	     -9.59693556	     -7.05021202	     59.20969427	      1.03340411	    -13.90764757	      5.87552621	      7.09902546	      0.70743402	      0.17426049	      0.00304142	     -1.85652199
     53.83000000	     -4.12189817	      2.70479063	     -1.57424255	      1.06312315	      0.96246349	     -0.53555391	     21.68155125	     -9.55607593	     -7.19199051	     59.29758501	      1.03493810	    -11.99335985	      5.55624638	      7.09785550	      0.60475687	      0.18000424	      0.00314167	     -1.55596842
     53.84000000	     -4.21092874	      2.64780278	     -1.55758714	      1.06186428	      0.96290519	     -0.53613313	     22.55083772	     -9.52449385	     -7.32030300	     59.16770680	      1.03267129	    -10.29246240	      5.24646190	      7.09953603	      0.56412651	      0.18998422	      0.00331585	     -1.15904169
     53.85000000	     -4.31698972	      2.57602981	     -1.52789349	      1.06053710	      0.96336688	     -0.53654812	     23.41758067	     -9.43686174	     -7.40576691	     58.84510998	      1.02704092	     -8.92478435	      4.95411025	      7.06772773	      0.51640854	      0.20227245	      0.00353032	     -0.93041207
     53.86000000	     -4.42136448	      2.51615367	     -1.52712892	      1.05924012	      0.96377704	     -0.53701344	     24.22128459	     -9.26113265	     -7.37482054	     58.24365140	      1.01654349	     -8.08937498	      4.66195537	      7.05342828	      0.50176501	      0.21639477	      0.00377680	     -0.53775364
     53.87000000	     -4.54929901	      2.47565353	     -1.54724010	      1.05774482	      0.96402987	     -0.53737550	     25.05325682	     -9.13645453	     -7.29831514	     57.55586821	      1.00453940	     -6.45416855	      4.43396216	      7.05614984	      0.31326661	      0.23073858	      0.00402715	     -0.31543194
     53.88000000	     -4.67056298	      2.40959914	     -1.47236559	      1.05623690	      0.96432969	     -0.53769650	     25.79475122	     -8.99967169	     -7.32364424	     56.68573424	      0.98935270	     -5.06935431	      4.17870939	      7.02567892	      0.38125068	      0.25239157	      0.00440506	     -0.07057148
     53.89000000	     -4.79256781	      2.37089802	     -1.45762241	      1.05470980	      0.96449003	     -0.53788019	     26.51671851	     -8.83427406	     -7.27432148	     55.64515847	      0.97119123	     -3.72807926	      3.93662546	      7.00065382	      0.36649860	      0.28427607	      0.00496155	      0.25451131
     53.90000000	     -4.90861407	      2.33223581	     -1.48283444	      1.05320635	      0.96467767	     -0.53803378	     27.16128991	     -8.61961414	     -7.16648055	     54.36238535	      0.94880261	     -2.82581685	      3.68831286	      6.96894754	      0.34341796	      0.31666805	      0.00552690	      0.32489356
     53.91000000	     -5.03321502	      2.29970203	     -1.50831704	      1.05167672	      0.96467653	     -0.53804225	     27.80643523	     -8.42959456	     -7.15584610	     53.04554938	      0.92581949	     -1.79276553	      3.43822930	      6.94602357	      0.27920879	      0.35852029	      0.00625736	      0.56471970
     53.92000000	     -5.15879016	      2.28849502	     -1.59445844	      1.05010826	      0.96460864	     -0.53807031	     28.42823427	     -8.25204483	     -7.00576868	     51.57595673	      0.90017026	     -0.47614926	      3.21238525	      6.93676287	      0.20968950	      0.40064091	      0.00699250	      0.90655295
     53.93000000	     -5.27472808	      2.26374810	     -1.63823670	      1.04853657	      0.96459092	     -0.53795611	     28.91801999	     -8.11097902	     -7.08539177	     49.81727862	      0.86947554	      0.28213034	      2.97833187	      6.90778646	      0.10017028	      0.44425873	      0.00775378	      1.06892594
     53.94000000	     -5.39165119	      2.24612905	     -1.72300544	      1.04699999	      0.96435357	     -0.53779962	     29.41031462	     -7.89636064	     -7.05398474	     48.13255377	      0.84007154	      1.17313017	      2.74069627	      6.89725385	     -0.03959128	      0.50157389	      0.00875412	      1.41447467
     53.95000000	     -5.49032216	      2.22901619	     -1.83512904	      1.04564101	      0.96420870	     -0.53761714	     29.82623025	     -7.76652637	     -7.12876756	     46.21298491	      0.80656874	      1.76023687	      2.46192497	      6.88370547	     -0.16348026	      0.54785353	      0.00956185	      1.68268058
